<svg width="61" height="61" viewBox="0 0 61 61" fill="none" xmlns="http://www.w3.org/2000/svg">
<rect x="0.164062" y="0.5" width="60" height="60" rx="12.0212" fill="white"/>
<path d="M11.3699 45.5265H48.9573C49.641 45.5265 50.1995 44.9681 50.1995 44.2856V16.7146C50.1995 16.0322 49.641 15.4736 48.9585 15.4736H11.3699C10.6874 15.4736 10.1289 16.0321 10.1289 16.7146V44.2844C10.1289 44.9681 10.6874 45.5265 11.3699 45.5265ZM12.6333 17.978H47.695V43.0221H12.6333V17.978Z" fill="#002B5F"/>
<path d="M16.3894 21.7385C17.0809 21.7385 17.6415 21.1778 17.6415 20.4863C17.6415 19.7947 17.0809 19.2341 16.3894 19.2341C15.6978 19.2341 15.1372 19.7947 15.1372 20.4863C15.1372 21.1778 15.6978 21.7385 16.3894 21.7385Z" fill="#002B5F"/>
<path d="M20.1726 21.7385C20.8641 21.7385 21.4247 21.1778 21.4247 20.4863C21.4247 19.7947 20.8641 19.2341 20.1726 19.2341C19.481 19.2341 18.9204 19.7947 18.9204 20.4863C18.9204 21.1778 19.481 21.7385 20.1726 21.7385Z" fill="#002B5F"/>
<path d="M23.9572 21.7385C24.6488 21.7385 25.2094 21.1778 25.2094 20.4863C25.2094 19.7947 24.6488 19.2341 23.9572 19.2341C23.2657 19.2341 22.7051 19.7947 22.7051 20.4863C22.7051 21.1778 23.2657 21.7385 23.9572 21.7385Z" fill="#002B5F"/>
<path d="M45.1901 22.9868H15.1372V25.4912H45.1901V22.9868Z" fill="#002B5F"/>
<path d="M24.7268 27.9856C21.2695 27.9856 18.4658 30.7893 18.4658 34.2467C18.4658 37.704 21.2695 40.5077 24.7268 40.5077C28.1841 40.5077 30.9879 37.704 30.9879 34.2467C30.9878 30.7881 28.1842 27.9856 24.7268 27.9856ZM24.7268 39.2555C21.9645 39.2555 19.718 37.009 19.718 34.2467C19.718 31.6258 21.7478 29.4933 24.3148 29.2791V34.4657H29.7131C29.5954 37.1242 27.414 39.2555 24.7268 39.2555ZM25.567 33.2136V29.3217C27.5905 29.6673 29.2059 31.2163 29.6254 33.2136H25.567Z" fill="#002B5F"/>
<path d="M41.8625 36.2651H33.459V37.5173H41.8625V36.2651Z" fill="#002B5F"/>
<path d="M41.8625 29.7349H33.459V30.9871H41.8625V29.7349Z" fill="#002B5F"/>
<path d="M41.8625 33.0984H33.459V34.3506H41.8625V33.0984Z" fill="#002B5F"/>
</svg>
