<svg width="60" height="60" viewBox="0 0 60 60" fill="none" xmlns="http://www.w3.org/2000/svg">
<rect width="60" height="60" rx="10" fill="white"/>
<path fill-rule="evenodd" clip-rule="evenodd" d="M21.7425 31.7138C22.4643 32.5958 24.3003 35.8632 24.69 37.5H35.19C35.5799 35.8645 37.4136 32.5971 38.1355 31.7164C39.3722 30.2038 40.1475 28.3797 40.3721 26.4544C40.5968 24.529 40.2616 22.5805 39.4053 20.8336C38.5491 19.0867 37.2064 17.6122 35.5321 16.5802C33.8578 15.5481 31.9199 15.0003 29.9417 15C27.9635 14.9997 26.0255 15.5468 24.3508 16.5784C22.6762 17.61 21.333 19.084 20.4762 20.8306C19.6194 22.5773 19.2836 24.5256 19.5076 26.4511C19.7316 28.3765 20.5063 30.2008 21.7425 31.7138ZM30.69 21L26.19 27.75H29.19V32.25L33.69 25.5H30.69V21Z" fill="#002B5F"/>
<path d="M24.6899 39H35.1899V40.5H24.6899V39Z" fill="#002B5F"/>
<path d="M24.6899 42.0001H35.1899V43.5001C35.1899 44.3285 34.5183 45.0001 33.6899 45.0001H26.1899C25.3614 45.0001 24.6899 44.3285 24.6899 43.5001V42.0001Z" fill="#002B5F"/>
</svg>
