<svg width="60" height="60" viewBox="0 0 60 60" fill="none" xmlns="http://www.w3.org/2000/svg">
<rect width="60" height="60" rx="12" fill="white"/>
<path d="M30.6771 32.6888C32.3137 32.6888 33.6334 31.3689 33.6334 29.7325C33.6334 28.096 32.3242 26.7761 30.6771 26.7761C29.0405 26.7761 27.7208 28.096 27.7208 29.7325C27.7312 31.3796 29.0511 32.6888 30.6771 32.6888ZM23.8141 41.2517H18.5032C16.7823 41.2517 16.6872 38.6227 18.5349 38.6227H23.1383L25.7779 34.7372C26.5592 33.6708 27.4462 33.1639 28.7026 33.1639H32.6409C33.8974 33.1639 34.7842 33.6285 35.5655 34.7372L38.2157 38.6227H42.8509C44.7091 38.6227 44.593 41.2517 42.9142 41.2517H37.6033C37.181 41.2517 36.6742 41.1039 36.3785 40.6499L34.3513 37.757L34.3407 45.0001H27.0766L27.0661 37.757L25.0388 40.6499C24.7432 41.0933 24.2365 41.2517 23.8141 41.2517Z" fill="#002B5F"/>
<path d="M22.098 31.4661C22.098 31.7623 21.8579 32.0104 21.5538 32.0104C21.3937 32.0104 21.2417 31.9383 21.1456 31.8262L20.5054 31.234V36.3161H18.214V32.7343H16.2414V36.3162H13.9185V31.194L13.1822 31.8582C13.0861 31.9544 12.95 32.0104 12.806 32.0104C12.5099 32.0104 12.2618 31.7702 12.2618 31.4661C12.2618 31.2981 12.3418 31.138 12.4618 31.0419L17.2319 26.7761L18.6645 28.0807V26.9762H19.8891V29.2012L21.962 31.0981C22.05 31.194 22.098 31.3221 22.098 31.4661Z" fill="#002B5F"/>
<path d="M44.1621 26.7769V26.7761L44.161 26.7764L44.16 26.7761V26.7769L40.5836 27.9686V32.7387C40.5836 32.7387 40.6261 34.9452 44.1612 36.3162C47.6959 34.9452 47.7384 32.7387 47.7384 32.7387V27.9686L44.1621 26.7769ZM43.6973 32.9697L41.9536 31.2265L42.5864 30.5937L43.6981 31.7057L45.7365 29.6733L46.3681 30.3069L43.6973 32.9697Z" fill="#002B5F"/>
<path d="M24.9321 24.2527V23.8246V20.5618C24.9321 20.1906 24.9891 19.9361 25.16 19.5679L26.9807 15.7932C27.1817 15.3651 27.7486 14.9999 28.2315 14.9999H33.3817C33.8916 14.9999 34.4645 15.3382 34.6595 15.7932L36.4802 19.5679C36.6511 19.9391 36.7081 20.2205 36.7081 20.5618V23.8276V24.2557C36.7081 24.3993 36.5642 24.54 36.4232 24.54H34.9744C34.8034 24.54 34.6895 24.3964 34.6895 24.2557V23.8276V23.3427H26.9507V23.8246V24.2527C26.9507 24.3964 26.8068 24.5371 26.6658 24.5371H25.217C25.076 24.5371 24.9321 24.3934 24.9321 24.2527ZM34.8034 20.4181C34.2935 20.4181 33.8916 20.8461 33.8916 21.3281C33.8916 21.81 34.2906 22.2381 34.8034 22.2381C35.3134 22.2381 35.7153 21.84 35.7153 21.3281C35.7153 20.8162 35.3134 20.4181 34.8034 20.4181ZM26.5818 19.4542H35.0584L33.8076 16.8439C33.5526 16.335 33.3247 16.2183 32.8118 16.2183H28.8044C28.2945 16.2183 28.0666 16.329 27.8386 16.8439L26.5818 19.4542ZM25.9279 21.3251C25.9279 21.807 26.3268 22.2351 26.8398 22.2351C27.3527 22.2351 27.7516 21.837 27.7516 21.3251C27.7516 20.8132 27.3527 20.4151 26.8398 20.4151C26.3268 20.4151 25.9279 20.8431 25.9279 21.3251Z" fill="#002B5F"/>
</svg>
